<svg xmlns="http://www.w3.org/2000/svg" xmlns:xlink="http://www.w3.org/1999/xlink" viewBox="0 0 1401.15 1451.71"><defs><clipPath id="a"><rect x="-0.38" width="1401.53" height="1451.71" fill="none"/></clipPath></defs><title>bg-chive</title><rect x="0.85" width="1404.3" height="1451.71" fill="#036a01"/><g clip-path="url(#a)"><polygon points="1488.2 1305.61 1494.81 1076.8 1355.99 1144.1 1488.2 1305.61" fill="#0f7f13"/><polygon points="1355.99 1144.1 1494.81 1076.8 1336.16 834.52 1355.99 1144.1" fill="#0b760c"/><polygon points="1607.18 975.85 1514.64 498.02 1336.16 834.52 1607.18 975.85" fill="#15781d"/><polygon points="1494.81 1076.8 1607.18 975.85 1336.16 834.52 1494.81 1076.8" fill="#0e7613"/><polygon points="1607.18 269.2 1534.47 114.42 1322.94 174.98 1607.18 269.2" fill="#055e0a"/><polygon points="1514.64 498.02 1607.18 269.2 1322.94 174.98 1514.64 498.02" fill="#0f6c1b"/><polygon points="1336.16 834.52 1514.64 498.02 1289.89 531.66 1336.16 834.52" fill="#076809"/><polygon points="1514.64 498.02 1322.94 174.98 1289.89 531.66 1514.64 498.02" fill="#025f06"/><polygon points="1488.2 1305.61 1355.99 1144.1 1283.27 1191.2 1488.2 1305.61" fill="#097909"/><polygon points="1455.14 1689.22 1488.2 1305.61 1230.39 1568.08 1455.14 1689.22" fill="#17941c"/><polygon points="1488.2 1305.61 1283.27 1191.2 1230.39 1568.08 1488.2 1305.61" fill="#0a8008"/><polygon points="1355.99 1144.1 1336.16 834.52 1210.56 969.12 1355.99 1144.1" fill="#08730b"/><polygon points="1283.27 1191.2 1355.99 1144.1 1210.56 969.12 1283.27 1191.2" fill="#067608"/><polygon points="1336.16 834.52 1289.89 531.66 1190.73 605.7 1336.16 834.52" fill="#08690a"/><polygon points="1322.94 174.98 1534.47 114.42 1184.12 -67.29 1322.94 174.98" fill="#08640f"/><polygon points="1944.31 87.49 2136.01 -6.73 1184.12 -67.29 1944.31 87.49" fill="#015905"/><polygon points="1534.47 114.42 1944.31 87.49 1184.12 -67.29 1534.47 114.42" fill="#0f6a1a"/><polygon points="1289.89 531.66 1322.94 174.98 1151.07 437.45 1289.89 531.66" fill="#005e00"/><polygon points="1190.73 605.7 1289.89 531.66 1151.07 437.45 1190.73 605.7" fill="#005700"/><polygon points="1210.56 969.12 1336.16 834.52 1111.41 854.7 1210.56 969.12" fill="#1b8519"/><polygon points="1336.16 834.52 1190.73 605.7 1111.41 854.7 1336.16 834.52" fill="#137c17"/><polygon points="1322.94 174.98 1184.12 -67.29 1058.52 121.14 1322.94 174.98" fill="#015001"/><polygon points="1151.07 437.45 1322.94 174.98 1032.08 370.15 1151.07 437.45" fill="#046106"/><polygon points="1322.94 174.98 1058.52 121.14 1032.08 370.15 1322.94 174.98" fill="#15751c"/><polygon points="1190.73 605.7 1151.07 437.45 1032.08 370.15 1190.73 605.7" fill="#015b01"/><polygon points="1283.27 1191.2 1210.56 969.12 1025.47 1117.17 1283.27 1191.2" fill="#017200"/><polygon points="1210.56 969.12 1111.41 854.7 1025.47 1117.17 1210.56 969.12" fill="#077505"/><polygon points="1230.39 1568.08 1283.27 1191.2 1005.64 1574.81 1230.39 1568.08" fill="#017c00"/><polygon points="1283.27 1191.2 1025.47 1117.17 860.21 1359.45 1283.27 1191.2" fill="#067900"/><polygon points="1005.64 1574.81 1283.27 1191.2 860.21 1359.45 1005.64 1574.81" fill="#047c00"/><polygon points="1032.08 370.15 1058.52 121.14 840.38 181.71 1032.08 370.15" fill="#16761d"/><polygon points="1025.47 1117.17 1111.41 854.7 827.16 780.67 1025.47 1117.17" fill="#077407"/><polygon points="1111.41 854.7 1190.73 605.7 827.16 780.67 1111.41 854.7" fill="#0d7611"/><polygon points="1058.52 121.14 1184.12 -67.29 807.33 -20.19 1058.52 121.14" fill="#035d05"/><polygon points="840.38 181.71 1058.52 121.14 807.33 -20.19 840.38 181.71" fill="#0f6e14"/><polygon points="1190.73 605.7 1032.08 370.15 761.06 592.23 1190.73 605.7" fill="#036502"/><polygon points="827.16 780.67 1190.73 605.7 761.06 592.23 827.16 780.67" fill="#036a01"/><polygon points="1032.08 370.15 840.38 181.71 761.06 592.23 1032.08 370.15" fill="#14791b"/><polygon points="860.21 1359.45 1025.47 1117.17 675.12 1130.63 860.21 1359.45" fill="#0a8207"/><polygon points="1025.47 1117.17 827.16 780.67 675.12 1130.63 1025.47 1117.17" fill="#118614"/><polygon points="761.06 592.23 840.38 181.71 602.41 383.61 761.06 592.23" fill="#22892e"/><polygon points="840.38 181.71 807.33 -20.19 556.14 -67.29 840.38 181.71" fill="#0c6b0d"/><polygon points="602.41 383.61 840.38 181.71 556.14 -67.29 602.41 383.61" fill="#117417"/><polygon points="1005.64 1574.81 860.21 1359.45 549.53 1446.94 1005.64 1574.81" fill="#1ea524"/><polygon points="575.97 1830.55 1005.64 1574.81 549.53 1446.94 575.97 1830.55" fill="#119c0d"/><polygon points="860.21 1359.45 675.12 1130.63 549.53 1446.94 860.21 1359.45" fill="#108f0e"/><polygon points="761.06 592.23 602.41 383.61 470.2 814.33 761.06 592.23" fill="#060"/><polygon points="827.16 780.67 761.06 592.23 470.2 814.33 827.16 780.67" fill="#0a770c"/><polygon points="675.12 1130.63 827.16 780.67 470.2 814.33 675.12 1130.63" fill="#118614"/><polygon points="575.97 1830.55 549.53 1446.94 423.93 1749.79 575.97 1830.55" fill="#0d9d07"/><polygon points="423.93 1749.79 549.53 1446.94 371.05 1695.95 423.93 1749.79" fill="#0a9903"/><polygon points="602.41 383.61 556.14 -67.29 371.05 181.71 602.41 383.61" fill="#076d0a"/><polygon points="549.53 1446.94 675.12 1130.63 304.94 1150.83 549.53 1446.94" fill="#0d8c09"/><polygon points="675.12 1130.63 470.2 814.33 304.94 1150.83 675.12 1130.63" fill="#138a12"/><polygon points="371.05 181.71 556.14 -67.29 278.5 100.95 371.05 181.71" fill="#026302"/><polygon points="470.2 814.33 602.41 383.61 252.06 565.32 470.2 814.33" fill="#0c770d"/><polygon points="549.53 1446.94 304.94 1150.83 219.01 1251.77 549.53 1446.94" fill="#0a8c06"/><polygon points="602.41 383.61 371.05 181.71 219.01 282.66 602.41 383.61" fill="#026804"/><polygon points="252.06 565.32 602.41 383.61 219.01 282.66 252.06 565.32" fill="#0c7510"/><polygon points="371.05 181.71 278.5 100.95 219.01 282.66 371.05 181.71" fill="#006000"/><polygon points="371.05 1695.95 549.53 1446.94 133.07 1581.54 371.05 1695.95" fill="#12a00c"/><polygon points="549.53 1446.94 219.01 1251.77 133.07 1581.54 549.53 1446.94" fill="#038a00"/><polygon points="219.01 1251.77 304.94 1150.83 73.58 1103.71 219.01 1251.77" fill="#0f8e0b"/><polygon points="304.94 1150.83 470.2 814.33 73.58 1103.71 304.94 1150.83" fill="#057d01"/><polygon points="470.2 814.33 252.06 565.32 73.58 1103.71 470.2 814.33" fill="#0f820b"/><polygon points="278.5 100.95 556.14 -67.29 33.92 -26.92 278.5 100.95" fill="#066a08"/><polygon points="73.58 1103.71 252.06 565.32 27.31 538.39 73.58 1103.71" fill="#138816"/><polygon points="252.06 565.32 219.01 282.66 27.31 538.39 252.06 565.32" fill="#0d760d"/><polygon points="219.01 1251.77 -3 1251.77 -3 1310.01 133.07 1581.54 219.01 1251.77" fill="#129b0f"/><polygon points="73.58 1103.71 -3 1210.92 -3 1251.77 219.01 1251.77 73.58 1103.71" fill="#0a8e07"/><polygon points="219.01 282.66 -3 187.49 -3 353.24 27.31 538.39 219.01 282.66" fill="#036a01"/><polygon points="278.5 100.95 -3 168.03 -3 187.49 219.01 282.66 278.5 100.95" fill="#006300"/><polygon points="33.92 -26.92 -3 85.85 -3 168.03 278.5 100.95 33.92 -26.92" fill="#016701"/><polygon points="-3.26 -15.4 -3 22.86 -3 0.53 -3 22.86 -3 85.85 33.92 -26.92 -3.26 -15.4" fill="#137b1a"/><polygon points="-3 1310.01 -3 1590.2 133.07 1581.54 -3 1310.01" fill="#16a913"/><polygon points="-3 353.24 -3 521.34 27.31 538.39 -3 353.24" fill="#0f780f"/><polygon points="-3 1052.22 -3 1210.92 73.58 1103.71 -3 1052.22" fill="#129312"/><polygon points="27.31 538.39 -3 571.27 -3 1052.22 73.58 1103.71 27.31 538.39" fill="#1a941b"/><polygon points="-3 521.34 -3 544.96 27.31 538.39 -3 521.34" fill="#067306"/><polygon points="-3 544.96 -3 571.27 27.31 538.39 -3 544.96" fill="#0e7f0d"/><polygon points="-230.49 0 33.92 -26.92 -481.69 -33.65 -230.49 0" fill="#0a7211"/></g></svg>