<?xml version="1.0" encoding="utf-8"?>
<svg version="1.1" id="logo-ichive" xmlns="http://www.w3.org/2000/svg" xmlns:xlink="http://www.w3.org/1999/xlink" x="0px" y="0px"
	 width="242.2px" height="61.2px" viewBox="0 0 242.2 61.2" style="enable-background:new 0 0 242.2 61.2;" xml:space="preserve">
<style type="text/css">
	.st0{fill:#FFFFFF;}
	.st1{fill:#00C300;}
</style>
<title>iCHIVE Logo</title>
<g id="Layer_2">
	<g id="Layer_1-2">
		<path class="st0" d="M119.2,0.1v61.1h-10.7V35.5h-21v25.7H76.7V0.1h10.8v24.8h21V10.7H98.4V0h20.8V0.1z"/>
		<path class="st0" d="M143.5,10.8v39.8h10.1v10.6h-31V50.6h10.2V10.8h-10.1V0.2h31v10.6H143.5z"/>
		<path class="st0" d="M208,0.1l-41.2,61.1H157V0.1h20.8v10.5h-10v30.5h0.1l26.8-41H208z"/>
		<path class="st0" d="M210.7,0h31.5v10.7h-20.7v14.9h11.7v10.6h-11.7v14.4h20.7v10.6h-31.5V0z"/>
		<path class="st1" d="M61.2,18.2c-1.9-2.3-4.3-4.3-6.9-5.7c-2.7-1.4-5.7-2.1-8.7-2.1c-2.6,0-5.2,0.6-7.5,1.7
			c-2.3,1.1-4.3,2.6-6,4.5c-1.7,1.9-3,4.1-4,6.4c-1,2.4-1.5,4.9-1.5,7.5c0,2.6,0.5,5.3,1.5,7.7c1,2.4,2.4,4.6,4.1,6.5
			c1.8,1.9,3.9,3.4,6.2,4.5c2.4,1.1,5,1.7,7.6,1.7c2.8,0.1,5.6-0.6,8.1-2c2.4-1.4,4.6-3.2,6.4-5.4h12.6c-1.1,2.6-2.6,5.1-4.5,7.2
			c-1.8,2.1-4,4-6.4,5.5c-2.4,1.5-5,2.7-7.7,3.5c-6.6,2.1-13.8,1.7-20.2-1.1c-7.3-3.1-13.2-9-16.2-16.4c-1.6-3.7-2.4-7.7-2.4-11.8
			c0-4,0.8-7.9,2.4-11.6c1.6-3.6,3.8-6.8,6.5-9.6c2.8-2.7,6-4.9,9.6-6.5c3.7-1.6,7.7-2.4,11.7-2.4c3,0,5.9,0.4,8.7,1.3
			c2.8,0.8,5.4,2,7.8,3.6c2.4,1.5,4.6,3.4,6.4,5.6c1.9,2.2,3.5,4.7,4.7,7.4C73.5,18.2,61.2,18.2,61.2,18.2z"/>
		<path class="st0" d="M5.6,21.7c2.7,0,5.5,1.7,5.5,5s-2.8,4.9-5.5,4.9S0,29.9,0,26.7C0,23.3,2.8,21.7,5.6,21.7z M10.5,60.8v-26H0.6
			v26H10.5z"/>
	</g>
</g>
</svg>
