<?xml version="1.0" encoding="utf-8"?>
<svg version="1.1" id="logo-thechive" xmlns="http://www.w3.org/2000/svg" xmlns:xlink="http://www.w3.org/1999/xlink" x="0px" y="0px"
	 width="281.7px" height="57.3px" viewBox="0 0 281.7 57.3" style="enable-background:new 0 0 281.7 57.3;" xml:space="preserve">
<style type="text/css">
	.st0{fill:#FFFFFF;}
	.st1{fill:#00C300;}
</style>
<title>theChive Logo</title>
<g id="Layer_1-2">
	<path class="st0" d="M166.4,0.1v57.3h-10V33.3h-19.7v24.1h-10.2V0.1h10.2v23.3h19.6V10.1H147v-10H166.4z"/>
	<path class="st0" d="M189.2,10.1v37.3h9.4v9.9h-28.9v-9.9h9.4V10.1h-9.4V0.2h28.9v9.9H189.2z"/>
	<path class="st0" d="M249.7,0.1l-38.6,57.3h-9.2V0.1h19.5v9.9H212v28.5h0.1l25.2-38.4H249.7z"/>
	<path class="st0" d="M252.2,0h29.5v10h-19.4v14h11v9.9h-11v13.5h19.4v9.9h-29.5V0z"/>
	<path class="st0" d="M36.1,56.7V41.1c0-1.9-0.3-3.2-1-3.9c-0.9-0.8-2.1-1.1-3.3-1c-0.8,0-1.5,0.2-2.2,0.5C29,37,28.4,37.5,28,38
		c-0.5,0.6-0.8,1.2-1,1.9c-0.2,0.8-0.3,1.6-0.3,2.4v14.4H20V22.4h6.6v12.4c0.3-0.6,0.6-1.1,1.1-1.6c0.5-0.5,1.1-0.9,1.7-1.3
		c0.7-0.4,1.4-0.6,2.1-0.8c0.8-0.2,1.6-0.3,2.4-0.3c2.3-0.1,4.5,0.6,6.3,2.1c1.7,1.5,2.5,3.7,2.4,5.9v17.8H36.1z"/>
	<path class="st0" d="M51.5,45.9c0,1.7,0.6,3.3,1.7,4.5c1,1.1,2.5,1.8,4,1.7c1,0,2-0.2,2.8-0.7c0.8-0.4,1.4-1.2,1.6-2.1h6.8
		c-0.6,2.4-2.1,4.5-4.1,6c-2,1.4-4.5,2.2-6.9,2.1c-8.4,0-12.6-4.6-12.5-13.7c0-1.8,0.3-3.6,0.8-5.2c0.5-1.5,1.3-2.8,2.4-4
		c1.1-1.1,2.4-2,3.8-2.6c1.6-0.6,3.4-1,5.1-0.9c3.9,0,6.8,1.2,8.8,3.7c2,2.5,3,6.2,3,11.2L51.5,45.9z M62,41.7
		c0-0.8-0.2-1.6-0.5-2.4c-0.3-0.6-0.7-1.2-1.2-1.7c-0.5-0.4-1-0.8-1.6-1c-0.6-0.2-1.2-0.3-1.9-0.3c-1.3,0-2.5,0.5-3.5,1.5
		c-1,1.1-1.6,2.5-1.7,4.1L62,41.7z"/>
	<polygon class="st0" points="6.6,25.2 0,25.2 0,57.3 6.4,57.3 17.6,46.4 13,41.5 6.6,47.9 6.6,36.9 17.4,36.9 17.4,31.9 6.6,31.9
		"/>
	<path class="st1" d="M112,17.1c-1.8-2.2-3.9-4-6.4-5.4c-2.5-1.3-5.3-2-8.2-1.9c-2.4,0-4.8,0.5-7,1.6c-2.1,1-4,2.5-5.6,4.3
		c-1.6,1.8-2.9,3.8-3.8,6c-0.9,2.2-1.4,4.6-1.4,7c0,2.5,0.5,4.9,1.4,7.2c0.9,2.3,2.2,4.4,3.9,6.2c1.6,1.8,3.6,3.2,5.8,4.2
		c2.2,1.1,4.6,1.6,7.1,1.6c2.7,0.1,5.3-0.6,7.6-1.8c2.3-1.3,4.3-3.1,6-5h11.8c-1,2.5-2.5,4.7-4.2,6.8c-1.7,2-3.8,3.8-6,5.2
		c-2.3,1.4-4.7,2.5-7.3,3.3c-2.5,0.8-5.2,1.2-7.8,1.2c-3.8,0-7.6-0.8-11.1-2.3c-3.4-1.5-6.5-3.6-9.1-6.2c-2.6-2.7-4.7-5.8-6.1-9.2
		c-1.5-3.5-2.3-7.3-2.2-11.1c0-3.8,0.7-7.5,2.2-10.9c1.4-3.4,3.5-6.4,6.1-9c2.6-2.6,5.6-4.6,9-6.1c3.5-1.5,7.2-2.3,11-2.2
		c5.5,0,10.8,1.6,15.4,4.5c2.2,1.5,4.3,3.2,6,5.2c1.8,2.1,3.3,4.5,4.4,7L112,17.1z"/>
</g>
</svg>
